<svg width="128" height="88" viewBox="0 0 128 88" fill="none" xmlns="http://www.w3.org/2000/svg">
<path d="M38.6973 15.2402L44.6508 11.3071V87.9999H38.6973V15.2402Z" fill="#FBE25D"/>
<path d="M46.6367 9.8324L52.5902 5.89941V87.9999H46.6367V9.8324Z" fill="#FBE25D"/>
<path d="M54.5742 4.68371L60.5277 0.491699V88H54.5742V4.68371Z" fill="#FBE25D"/>
<path d="M62.5117 0L68.4652 4.1788V88H62.5117V0Z" fill="#FBE25D"/>
<path d="M70.4492 5.40771L76.4027 9.83231V87.9999H70.4492V5.40771Z" fill="#FBE25D"/>
<path d="M78.3887 11.0615L84.3422 15.2403V88H78.3887V11.0615Z" fill="#FBE25D"/>
<path d="M88.3105 81.9567L117.465 77.676L128 81.9567V88H88.3105V81.9567Z" fill="#FBE25D"/>
<path d="M88.3105 71.6473L117.71 64.4023L128 71.6473V78.1677L117.71 72.7599L88.3105 78.1677V71.6473Z" fill="#FBE25D"/>
<path d="M88.3105 61.4525L117.22 51.6201L128 61.4525V67.3519L117.22 58.7486L88.3105 67.3519V61.4525Z" fill="#FBE25D"/>
<path d="M88.3105 51.1285L117.22 37.8547L128 51.1285V57.0279L117.22 46.4581L88.3105 57.0279V51.1285Z" fill="#FBE25D"/>
<path d="M88.3105 40.8044L117.22 25.5642L128 40.8044V46.7039L117.22 32.4469L88.3105 46.7039V40.8044Z" fill="#FBE25D"/>
<path d="M0 82.1006L11.907 78.905L34.7287 82.1006V88H11.907H0V82.1006Z" fill="#FBE25D"/>
<path d="M0 54.0782L11.907 45.229L34.7287 55.3072V61.2066L11.907 52.6033L0 59.9776V54.0782Z" fill="#FBE25D"/>
<path d="M0 63.4191L11.907 56.5364L34.7287 63.9107V69.8101L11.907 63.9107L0 69.3185V63.4191Z" fill="#FBE25D"/>
<path d="M0 72.7597L11.907 67.8435L34.7287 72.7597V78.1675L11.907 73.7429L0 78.1675V72.7597Z" fill="#FBE25D"/>
</svg>
